<?xml version="1.0" encoding="UTF-8" standalone="no"?>
<!-- Created with Inkscape (http://www.inkscape.org/) -->

<svg
   width="1028"
   height="1028"
   viewBox="0 0 271.99165 271.99167"
   version="1.1"
   id="svg1"
   inkscape:version="1.3.2 (091e20e, 2023-11-25, custom)"
   sodipodi:docname="icon.svg"
   xmlns:inkscape="http://www.inkscape.org/namespaces/inkscape"
   xmlns:sodipodi="http://sodipodi.sourceforge.net/DTD/sodipodi-0.dtd"
   xmlns="http://www.w3.org/2000/svg"
   xmlns:svg="http://www.w3.org/2000/svg">
  <sodipodi:namedview
     id="namedview1"
     pagecolor="#ffffff"
     bordercolor="#000000"
     borderopacity="0.25"
     inkscape:showpageshadow="2"
     inkscape:pageopacity="0.0"
     inkscape:pagecheckerboard="0"
     inkscape:deskcolor="#d1d1d1"
     inkscape:document-units="mm"
     inkscape:zoom="0.51717104"
     inkscape:cx="342.24655"
     inkscape:cy="700.92866"
     inkscape:window-width="1920"
     inkscape:window-height="1017"
     inkscape:window-x="-8"
     inkscape:window-y="-8"
     inkscape:window-maximized="1"
     inkscape:current-layer="g2" />
  <defs
     id="defs1" />
  <g
     inkscape:label="Camada 1"
     inkscape:groupmode="layer"
     id="layer1">
    <g
       id="g2"
       style="stroke-width:0.189211"
       transform="matrix(5.2851041,0,0,5.2851041,-46.778892,-339.77189)">
      <g
         id="g4"
         transform="translate(-1.0602612,1.3792628)">
        <path
           style="fill:#fcfa69;fill-opacity:1;stroke-width:0.023273"
           d="m 34.294907,112.72004 c -1.034686,-0.0799 -1.808824,-0.25763 -2.927043,-0.67213 -2.465274,-0.91382 -4.355087,-2.36663 -6.045272,-4.64736 -1.386789,-1.87131 -2.252353,-4.17253 -2.507262,-6.66584 -0.119333,-1.167233 -0.02122,-2.911863 0.232752,-4.137989 0.759983,-3.669319 3.115682,-6.984848 6.275064,-8.831869 4.430895,-2.59036 9.798004,-2.255501 13.956252,0.870744 0.623575,0.468816 1.63863,1.444082 2.195087,2.109053 1.537009,1.83672 2.545811,4.153738 2.951246,6.778418 0.128442,0.83151 0.127745,2.953973 -0.0012,3.825693 -0.314289,2.12373 -0.995158,3.91867 -2.137504,5.63496 -1.983939,2.98074 -5.095915,5.0652 -8.423123,5.64199 -0.696846,0.12081 -2.580815,0.17059 -3.568938,0.0943 z"
           id="path10" />
        <path
           style="fill:#ff650c;fill-opacity:1;stroke-width:0.189211"
           d="m 35.17916,112.89821 c -2.124771,-0.12821 -4.151893,-0.38261 -5.506332,-0.69101 -3.479888,-0.79238 -6.625458,-2.24598 -9.075115,-4.19369 -1.501359,-1.19371 -2.210481,-2.03978 -2.960898,-3.53271 -0.877391,-1.74555 -0.972796,-2.97226 -0.41784,-5.372523 0.46743,-2.021715 0.66172,-3.377992 0.73941,-5.161661 0.116545,-2.67604 -0.299467,-3.960109 -1.95857,-6.045243 -0.935636,-1.175883 -1.733116,-1.894097 -2.236108,-2.013838 -1.117091,-0.265929 -0.488559,-1.282603 1.459079,-2.360094 1.752254,-0.969393 3.682877,-0.763844 5.67783,0.604502 0.254012,0.174222 0.46012,0.277747 0.458019,0.23005 -0.0022,-0.04771 -0.07375,-0.404567 -0.159187,-0.793049 -0.08546,-0.388481 -0.157076,-1.160838 -0.159177,-1.71633 -0.0098,-2.56293 0.938788,-3.899303 3.52636,-4.968533 1.270173,-0.524865 1.443738,-0.641641 1.919068,-1.29128 0.22936,-0.313462 0.310091,-0.547779 0.310091,-0.899987 0,-1.735315 -1.858108,-3.004777 -4.618338,-3.155232 -0.597664,-0.03261 -1.147795,-0.107672 -1.222497,-0.166913 -0.19429,-0.154011 -0.167919,-0.374979 0.07353,-0.616441 0.199203,-0.199203 1.88995,-0.778035 3.346535,-1.145704 1.806505,-0.455985 4.265572,-0.620818 5.633633,-0.377638 1.338551,0.237949 2.738892,0.95345 3.445672,1.76057 0.10614,0.121152 0.204368,0.201118 0.218385,0.177712 0.01401,-0.02342 0.188622,-0.384859 0.388,-0.803235 1.16016,-2.43449 3.068734,-4.444773 5.053062,-5.322339 1.408493,-0.622907 3.914304,-0.971833 4.354652,-0.606374 0.340489,0.282572 0.203372,0.618455 -0.454146,1.112529 -0.490517,0.368599 -0.706582,0.632427 -1.005163,1.227421 -0.376412,0.750089 -0.380329,0.77251 -0.380329,2.173343 0,1.230901 0.03961,1.549998 0.303701,2.447764 0.167033,0.56778 0.590606,1.61913 0.941271,2.336327 1.024181,2.094713 1.950495,2.851115 4.80312,3.922162 1.830699,0.687346 2.824657,1.260423 3.72368,2.146928 1.232991,1.215823 1.97227,2.833138 2.320232,5.075931 0.172384,1.111106 0.202344,1.195262 0.404096,1.134982 1.930131,-0.57671 3.388904,-0.752223 3.793459,-0.456411 0.226548,0.165665 0.200046,0.609317 -0.04388,0.734606 -0.08962,0.04607 -0.431955,0.216207 -0.76067,0.378141 -0.870049,0.428596 -1.975716,1.217256 -3.323579,2.370697 -1.301642,1.113859 -1.713113,1.680677 -2.19328,3.021273 -0.243541,0.679972 -0.286226,0.980565 -0.290647,2.046699 -0.0055,1.388086 -0.180349,0.764117 1.657243,5.922338 l 0.503265,1.41267 0.0033,1.52134 c 0.0033,1.4835 -0.0055,1.54194 -0.354364,2.35005 -0.649727,1.50523 -2.04719,3.37695 -3.33556,4.46755 -0.933404,0.79011 -2.410056,1.52259 -4.402404,2.18375 -2.767462,0.91838 -5.807397,1.19586 -10.19864,0.9309 z m 2.374636,-0.42905 c 4.384613,-0.69621 8.218066,-3.98295 9.753149,-8.3622 0.965946,-2.75567 0.975652,-5.940763 0.02659,-8.748294 -1.877772,-5.5552 -7.328605,-9.143795 -12.966747,-8.536753 -8.895662,0.957772 -13.960596,10.901684 -9.713659,19.070717 0.868626,1.67081 2.544525,3.57065 4.052669,4.59421 1.376247,0.93406 3.111234,1.65669 4.646252,1.93522 0.954796,0.17325 3.24555,0.19893 4.201692,0.047 z"
           id="path11"
           sodipodi:nodetypes="cssssssssscscsssscssscsssssssssssssssssscscccsscccscsssscc" />
        <g
           id="g8"
           transform="matrix(1.1493501,0,0,1.1493501,-154.64503,-11.395209)"
           style="stroke-width:0.164624">
          <path
             style="fill:#ffffff;fill-opacity:1;stroke-width:0.0202488"
             d="m 159.72647,93.65457 c -1.00267,-0.422469 -0.85834,-2.28244 0.31526,-4.062694 0.18992,-0.288102 0.68311,-0.846232 1.09597,-1.240287 1.51775,-1.448617 3.24073,-1.82693 3.77533,-0.828947 0.21857,0.408012 0.14416,1.522837 -0.15229,2.281728 -0.51199,1.310632 -2.05018,2.981876 -3.28429,3.568364 -0.6495,0.308662 -1.3996,0.429466 -1.74998,0.281836 z"
             id="path6" />
          <path
             style="fill:#ffffff;fill-opacity:1;stroke-width:0.0202488"
             d="m 170.06992,94.264311 c -1.0836,-0.536278 -2.09832,-2.013067 -2.11972,-3.084981 -0.0159,-0.800297 0.22454,-1.132879 0.81925,-1.132879 0.60755,0 1.18673,0.302983 1.79993,0.941599 0.62218,0.64795 1.01855,1.348155 1.16083,2.050617 0.23586,1.164504 -0.57474,1.762887 -1.66029,1.225644 z"
             id="path8" />
          <path
             style="fill:#ffffff;fill-opacity:1;stroke-width:0.0202488"
             d="m 165.76691,105.88352 c -0.52029,-0.11676 -1.38419,-0.37989 -1.91977,-0.58465 l -0.97381,-0.37231 v -0.44204 c 0,-0.64612 0.28116,-2.83657 0.72407,-6.439772 0.21386,-1.739865 0.38885,-3.215443 0.38885,-3.279064 0,-0.06361 0.0787,-0.197964 0.17488,-0.298539 0.13752,-0.143792 0.43317,-0.182863 1.38365,-0.182863 1.05438,0 1.21634,0.02602 1.26813,0.203643 0.11065,0.379455 0.948,5.780335 1.1231,7.243855 0.0957,0.80003 0.2055,1.72002 0.24397,2.66404 l 0.07,1.71641 -0.76853,-0.009 c -0.42268,-0.005 -1.1942,-0.10375 -1.71449,-0.22054 z"
             id="path7"
             sodipodi:nodetypes="cscsssssssccccc" />
          <path
             style="fill:#000000;fill-opacity:1;stroke-width:0.164624"
             d="m 166.06668,106.3284 c -0.94316,-0.14501 -2.38995,-0.58629 -3.11643,-0.95055 l -0.38542,-0.19325 0.054,-0.56237 c 0.12547,-1.30755 0.39816,-5.17724 0.62197,-6.890253 0.13202,-1.01047 0.26928,-2.15005 0.30503,-2.53239 0.0833,-0.89145 0.15134,-1.01054 0.66053,-1.15655 0.65084,-0.18663 2.4621,-0.17091 2.75568,0.0239 0.26257,0.17425 0.37452,0.69483 0.99108,4.608465 0.29072,1.845338 0.58998,7.332748 0.46304,7.663528 -0.0759,0.19785 -1.02155,0.1936 -2.34944,-0.0106 z m 1.68742,-1.34994 c -0.002,-1.66575 -0.24811,-5.224105 -0.87555,-8.785773 l -0.27992,-1.58896 -1.10522,0.003 c -0.60787,0.002 -1.13028,0.0284 -1.16091,0.0591 -0.048,0.048 -0.22197,1.32163 -0.64253,4.704393 -0.23072,1.85579 -0.41468,5.33638 -0.36486,5.417 0.0295,0.0478 0.45994,0.23219 0.95646,0.4098 0.96612,0.34559 2.10702,0.57366 2.952,0.59019 l 0.52138,0.0102 z m 2.04253,-10.228023 c -0.55179,-0.21543 -1.33042,-0.92768 -1.69761,-1.55289 -0.70458,-1.19966 -0.71234,-2.89076 -0.0152,-3.31583 0.42719,-0.26047 0.82357,-0.24345 1.43583,0.0616 1.00262,0.49963 1.96501,1.84722 2.21056,3.09535 0.21003,1.06754 -0.0577,1.63254 -0.86222,1.81922 -0.49908,0.11581 -0.49949,0.11577 -1.07134,-0.10749 z m 1.2897,-0.73805 c 0.87271,-0.87271 -0.65374,-3.60151 -2.12502,-3.79885 -1.35912,-0.1823 -1.1257,2.15273 0.34422,3.44334 0.71949,0.63172 1.37394,0.76237 1.7808,0.35551 z m -11.52935,0.20338 c -0.74427,-0.32419 -1.10889,-1.23743 -0.93216,-2.33478 0.14688,-0.91204 0.44549,-1.61669 1.09937,-2.59426 0.71778,-1.07309 1.66669,-1.94935 2.65321,-2.45008 0.64119,-0.32545 0.83223,-0.37631 1.41357,-0.37631 0.75031,0 1.05666,0.15646 1.45641,0.74381 0.32072,0.47124 0.31234,1.6738 -0.0182,2.61039 -0.50161,1.4213 -1.6532,2.90874 -2.89504,3.73933 -1.10506,0.73911 -2.07123,0.96938 -2.77716,0.6619 z m 1.91947,-0.84303 c 1.72519,-0.87307 3.25946,-2.95728 3.376,-4.5861 0.0595,-0.83192 -0.0126,-1.13419 -0.34358,-1.44098 -0.20996,-0.19458 -0.36373,-0.23962 -0.81529,-0.23884 -0.69953,10e-4 -1.34059,0.28888 -2.15591,0.96739 -1.55513,1.29419 -2.54201,3.34662 -2.28021,4.74214 0.16441,0.87639 1.11546,1.11486 2.21899,0.55639 z"
             id="path5"
             sodipodi:nodetypes="csccscsssscccscccscsscccsscssccsssssssssssssssccsss" />
        </g>
      </g>
    </g>
  </g>
</svg>
