<?xml version="1.0" encoding="UTF-8" standalone="no"?>
<!-- Created with Inkscape (http://www.inkscape.org/) -->

<svg
   width="186.3073mm"
   height="74.949959mm"
   viewBox="0 0 186.3073 74.949959"
   version="1.1"
   id="svg1"
   xml:space="preserve"
   xmlns="http://www.w3.org/2000/svg"
   xmlns:svg="http://www.w3.org/2000/svg"><defs
     id="defs1" /><g
     id="layer1"
     transform="translate(-11.846348,-8.0624178)"><g
       id="g2"
       style="fill:#000000;stroke-width:0.116749"
       transform="matrix(8.5653131,0,0,8.5653131,-292.81068,-1025.1701)"><path
         d="m 44.822804,122.23994 0.07781,1.36858 h -0.68425 l -0.07392,-2.59396 0.38585,-0.36531 h 0.97282 l 0.0471,0.50557 H 44.76111 l 0.0306,0.5382 h 0.744276 l 0.04942,0.54692 z m 1.238549,1.36858 -0.310597,-2.95927 h 0.600335 l 0.311506,2.33663 h 0.932791 l 0.107713,0.62264 z m 2.621828,0 h -0.686507 l -0.470298,-2.53994 0.384,-0.41933 1.252184,0 0.787499,2.95927 h -0.68425 l -0.251862,-1.05934 -0.557051,0 z m 0.194806,-1.63118 -0.19556,-0.82252 -0.523383,0 0.175699,0.82252 z m 2.038026,-1.32809 h 0.693456 l 1.129527,2.95927 h -0.632309 l -0.686554,-1.9313 0.178447,1.9313 h -0.203242 l -1.097058,-1.9313 0.588952,1.9313 -0.63231,0 -0.824887,-2.95927 0.693457,0 0.850929,1.37687 z m 0.988671,0 h 1.390874 l 0.233236,0.50557 h -0.815505 l 0.228044,0.5382 h 0.794172 l 0.251288,0.54692 h -0.805204 l 0.316343,0.74594 h 0.897592 l 0.287826,0.62264 h -1.607874 z"
         id="text1"
         style="font-size:5.21164px;font-family:'Aldo the Apache';-inkscape-font-specification:'Aldo the Apache, Normal';fill:#ff650c;fill-opacity:1;stroke-width:0.0143603"
         aria-label="FLAMe" /><path
         d="m 46.202188,128.12656 -0.06656,-0.71321 h 1.004553 l 0.132394,1.02407 -0.592703,0.87495 H 44.37891 l -0.134772,-4.72922 0.607969,-0.61941 h 1.842106 l 0.229848,1.77789 h -0.944437 l -0.08526,-0.91358 h -0.731666 l 0.212616,3.29851 z m 0.842489,-4.16282 2.528551,0 1.320375,5.34863 -3.080892,0 z m 1.627958,4.16282 h 0.901426 l -0.696053,-3.29851 h -0.797637 z m 1.285813,-4.16282 1.801557,0 0.935114,0.71551 1.366974,3.75817 -0.398156,0.87495 -2.300966,0 z m 2.960374,4.16282 -1.081164,-3.29851 h -0.743661 l 0.984398,3.29851 z m -0.133494,-4.16282 h 2.033268 l 0.398521,0.86431 h -1.205449 l 0.389361,0.94154 h 1.188023 l 0.449666,0.98027 h -1.219414 l 0.569965,1.3767 h 1.382637 l 0.548163,1.18581 H 54.80736 Z"
         id="text2"
         style="font-size:6.58739px;font-family:'Aldo the Apache';-inkscape-font-specification:'Aldo the Apache, Normal';fill:#ffffff;fill-opacity:1;stroke-width:0.0143603"
         aria-label="code" /></g><g
       id="g12"
       transform="matrix(0.95805586,0,0,0.95805586,1.2444923,-54.78137)"
       style="stroke-width:1.04378"><g
         id="g11"
         style="stroke-width:1.04378"><g
           id="g1"
           transform="matrix(1.7575583,0,0,1.7575583,-8.3831485,-49.692126)"
           style="stroke-width:0.593881"><path
             style="fill:#fcfa69;fill-opacity:1;stroke-width:0.0730474"
             d="m 30.332867,109.8562 c -0.945591,-0.073 -1.653069,-0.23544 -2.675,-0.61425 -2.252993,-0.83513 -3.980077,-2.16284 -5.524723,-4.24718 -1.267374,-1.71018 -2.058406,-3.81324 -2.291365,-6.091854 -0.109057,-1.066722 -0.01939,-2.661128 0.21271,-3.781672 0.694542,-3.353359 2.847395,-6.383393 5.734728,-8.07137 4.049357,-2.367308 8.954312,-2.061283 12.7545,0.795766 0.56988,0.428447 1.49753,1.319734 2.006071,1.927445 1.40466,1.678563 2.326595,3.796066 2.697119,6.194737 0.117382,0.759909 0.116745,2.69961 -0.0011,3.496269 -0.287226,1.940859 -0.909466,3.581239 -1.953446,5.149739 -1.813105,2.72407 -4.657114,4.62904 -7.697821,5.15617 -0.636842,0.1104 -2.358585,0.1559 -3.261622,0.0862 z"
             id="path10" /><path
             style="fill:#ff650c;fill-opacity:1;stroke-width:0.593881"
             d="m 31.140978,110.01903 c -1.94181,-0.11717 -3.79438,-0.34966 -5.03219,-0.63151 -3.18024,-0.72415 -6.05495,-2.05258 -8.29367,-3.83257 -1.37208,-1.09093 -2.02014,-1.86414 -2.70594,-3.22852 -0.80184,-1.59524 -0.88903,-2.716314 -0.38186,-4.909894 0.42718,-1.84763 0.60474,-3.08712 0.67574,-4.7172 0.10651,-2.44561 -0.27368,-3.61911 -1.78992,-5.524696 -0.85507,-1.07463 -1.58388,-1.731 -2.04356,-1.84043 -1.0209,-0.24303 -0.44649,-1.17216 1.33344,-2.15687 1.60137,-0.88592 3.36575,-0.69807 5.18892,0.55245 0.23214,0.15922 0.4205,0.25383 0.41858,0.21024 -0.002,-0.0436 -0.0674,-0.36973 -0.14548,-0.72476 -0.0781,-0.35503 -0.14355,-1.06088 -0.14547,-1.56854 -0.009,-2.34224 0.85795,-3.56354 3.22271,-4.5407 1.1608,-0.47967 1.31942,-0.58639 1.75382,-1.18009 0.20961,-0.28647 0.28339,-0.50061 0.28339,-0.82249 0,-1.58589 -1.69811,-2.74604 -4.22066,-2.88354 -0.5462,-0.0298 -1.04896,-0.0984 -1.11723,-0.15254 -0.17756,-0.14075 -0.15346,-0.34269 0.0672,-0.56336 0.18205,-0.18205 1.72721,-0.71104 3.05837,-1.04705 1.65095,-0.41672 3.89827,-0.56736 5.14853,-0.34512 1.22329,0.21746 2.50305,0.87135 3.14897,1.60897 0.097,0.11072 0.18677,0.1838 0.19958,0.16241 0.0128,-0.0214 0.17238,-0.35172 0.35459,-0.73407 1.06026,-2.22486 2.80449,-4.06204 4.61795,-4.86404 1.28721,-0.56927 3.57725,-0.88815 3.97968,-0.55416 0.31117,0.25824 0.18586,0.5652 -0.41504,1.01673 -0.44828,0.33686 -0.64574,0.57797 -0.91861,1.12173 -0.344,0.6855 -0.34758,0.70599 -0.34758,1.9862 0,1.12491 0.0362,1.41653 0.27755,2.23699 0.15265,0.51889 0.53975,1.47971 0.86022,2.13515 0.93599,1.91434 1.78254,2.60561 4.38953,3.58443 1.67306,0.62816 2.58143,1.15189 3.40304,1.96206 1.12682,1.11113 1.80244,2.58918 2.12044,4.63885 0.15754,1.01543 0.18492,1.09234 0.3693,1.03725 1.76393,-0.52705 3.09709,-0.68745 3.46681,-0.41711 0.20704,0.1514 0.18282,0.55685 -0.0401,0.67135 -0.0819,0.0421 -0.39476,0.19759 -0.69517,0.34558 -0.79513,0.39169 -1.80559,1.11244 -3.03739,2.16656 -1.18956,1.017946 -1.5656,1.535956 -2.00442,2.761116 -0.22257,0.62142 -0.26158,0.89613 -0.26562,1.87046 -0.005,1.26856 -0.16482,0.69832 1.51454,5.41237 l 0.45993,1.29103 0.003,1.390334 c 0.003,1.35576 -0.005,1.40917 -0.32385,2.14769 -0.59378,1.37562 -1.87091,3.08617 -3.04834,4.08286 -0.85303,0.72207 -2.20253,1.39148 -4.02332,1.99571 -2.52916,0.8393 -5.30733,1.09289 -9.32045,0.85074 z m 2.17016,-0.3921 c 4.00706,-0.63626 7.51042,-3.63999 8.91332,-7.64215 0.88277,-2.518374 0.89164,-5.429204 0.0243,-7.994984 -1.71608,-5.07685 -6.69755,-8.356436 -11.8502,-7.801666 -8.12967,0.8753 -12.75847,9.962956 -8.87723,17.42856 0.79383,1.52694 2.32542,3.26319 3.7037,4.19861 1.25774,0.85363 2.84333,1.51404 4.24617,1.76858 0.87258,0.15833 2.96608,0.1818 3.83989,0.043 z"
             id="path11" /><g
             id="g8"
             transform="matrix(1.0503812,0,0,1.0503812,-142.33773,-3.5716619)"
             style="stroke-width:0.565395"><path
               style="fill:#ffffff;fill-opacity:1;stroke-width:0.0695436"
               d="m 159.72647,93.65457 c -1.00267,-0.422469 -0.85834,-2.28244 0.31526,-4.062694 0.18992,-0.288102 0.68311,-0.846232 1.09597,-1.240287 1.51775,-1.448617 3.24073,-1.82693 3.77533,-0.828947 0.21857,0.408012 0.14416,1.522837 -0.15229,2.281728 -0.51199,1.310632 -2.05018,2.981876 -3.28429,3.568364 -0.6495,0.308662 -1.3996,0.429466 -1.74998,0.281836 z"
               id="path6" /><path
               style="fill:#ffffff;fill-opacity:1;stroke-width:0.0695436"
               d="m 170.06992,94.264311 c -1.0836,-0.536278 -2.09832,-2.013067 -2.11972,-3.084981 -0.0159,-0.800297 0.22454,-1.132879 0.81925,-1.132879 0.60755,0 1.18673,0.302983 1.79993,0.941599 0.62218,0.64795 1.01855,1.348155 1.16083,2.050617 0.23586,1.164504 -0.57474,1.762887 -1.66029,1.225644 z"
               id="path8" /><path
               style="fill:#ffffff;fill-opacity:1;stroke-width:0.0695436"
               d="m 165.76691,105.88352 c -0.52029,-0.11676 -1.38419,-0.37989 -1.91977,-0.58465 l -0.97381,-0.37231 v -0.44204 c 0,-0.64612 0.28116,-2.83657 0.72407,-6.439772 0.21386,-1.739865 0.38885,-3.215443 0.38885,-3.279064 0,-0.06361 0.0787,-0.197964 0.17488,-0.298539 0.13752,-0.143792 0.43317,-0.182863 1.38365,-0.182863 1.05438,0 1.21634,0.02602 1.26813,0.203643 0.11065,0.379455 0.948,5.780335 1.1231,7.243855 0.0957,0.80003 0.2055,1.72002 0.24397,2.66404 l 0.07,1.71641 -0.76853,-0.009 c -0.42268,-0.005 -1.1942,-0.10375 -1.71449,-0.22054 z"
               id="path7" /><path
               style="fill:#000000;fill-opacity:1;stroke-width:0.565395"
               d="m 166.06668,106.3284 c -0.94316,-0.14501 -2.38995,-0.58629 -3.11643,-0.95055 l -0.38542,-0.19325 0.054,-0.56237 c 0.12547,-1.30755 0.39816,-5.17724 0.62197,-6.890253 0.13202,-1.01047 0.26928,-2.15005 0.30503,-2.53239 0.0833,-0.89145 0.15134,-1.01054 0.66053,-1.15655 0.65084,-0.18663 2.4621,-0.17091 2.75568,0.0239 0.26257,0.17425 0.37452,0.69483 0.99108,4.608465 0.29072,1.845338 0.58998,7.332748 0.46304,7.663528 -0.0759,0.19785 -1.02155,0.1936 -2.34944,-0.0106 z m 1.68742,-1.34994 c -0.002,-1.66575 -0.24811,-5.224105 -0.87555,-8.785773 l -0.27992,-1.58896 -1.10522,0.003 c -0.60787,0.002 -1.13028,0.0284 -1.16091,0.0591 -0.048,0.048 -0.22197,1.32163 -0.64253,4.704393 -0.23072,1.85579 -0.41468,5.33638 -0.36486,5.417 0.0295,0.0478 0.45994,0.23219 0.95646,0.4098 0.96612,0.34559 2.10702,0.57366 2.952,0.59019 l 0.52138,0.0102 z m 2.04253,-10.228023 c -0.55179,-0.21543 -1.33042,-0.92768 -1.69761,-1.55289 -0.70458,-1.19966 -0.71234,-2.89076 -0.0152,-3.31583 0.42719,-0.26047 0.82357,-0.24345 1.43583,0.0616 1.00262,0.49963 1.96501,1.84722 2.21056,3.09535 0.21003,1.06754 -0.0577,1.63254 -0.86222,1.81922 -0.49908,0.11581 -0.49949,0.11577 -1.07134,-0.10749 z m 1.2897,-0.73805 c 0.87271,-0.87271 -0.65374,-3.60151 -2.12502,-3.79885 -1.35912,-0.1823 -1.1257,2.15273 0.34422,3.44334 0.71949,0.63172 1.37394,0.76237 1.7808,0.35551 z m -11.52935,0.20338 c -0.74427,-0.32419 -1.10889,-1.23743 -0.93216,-2.33478 0.14688,-0.91204 0.44549,-1.61669 1.09937,-2.59426 0.71778,-1.07309 1.66669,-1.94935 2.65321,-2.45008 0.64119,-0.32545 0.83223,-0.37631 1.41357,-0.37631 0.75031,0 1.05666,0.15646 1.45641,0.74381 0.32072,0.47124 0.31234,1.6738 -0.0182,2.61039 -0.50161,1.4213 -1.6532,2.90874 -2.89504,3.73933 -1.10506,0.73911 -2.07123,0.96938 -2.77716,0.6619 z m 1.91947,-0.84303 c 1.72519,-0.87307 3.25946,-2.95728 3.376,-4.5861 0.0595,-0.83192 -0.0126,-1.13419 -0.34358,-1.44098 -0.20996,-0.19458 -0.36373,-0.23962 -0.81529,-0.23884 -0.69953,10e-4 -1.34059,0.28888 -2.15591,0.96739 -1.55513,1.29419 -2.54201,3.34662 -2.28021,4.74214 0.16441,0.87639 1.11546,1.11486 2.21899,0.55639 z"
               id="path5" /></g></g></g></g></g></svg>
